<?xml version="1.0" encoding="UTF-8"?>
<svg id="Livello_1" data-name="Livello 1" xmlns="http://www.w3.org/2000/svg" viewBox="0 0 470 154">
  <g>
    <path d="M176,105v7h-38v10h38v8h-77v17h-7v-23.5c0-.11,1.39-1.5,1.5-1.5h35c3.61,0,2.57-10,0-10h-33c-1.99,3.09-20.5,19.05-20.5,20.5v14.5h-7v-14.5c0-1.45-18.51-17.41-20.5-20.5h-14.5v35h-7v-35H8v-7h42.5c6.61,7.43,14.77,13.31,21,20.98l21-20.98h83.5Z"/>
    <polygon points="204 105 204 122 232 122 232 105 239 105 239 147 232 147 232 130 204 130 204 147 134 147 134 140 197 140 197 105 204 105"/>
  </g>
  <rect x="469" width="1" height="4"/>
</svg>